<svg xmlns="http://www.w3.org/2000/svg" enable-background="new 0 0 24 24" viewBox="0 0 24 24"><path d="M4.375 17.325c-.053 0-.106-.008-.159-.026-.262-.088-.402-.372-.314-.633l.815-2.431c-1.027.872-2.408 1.579-3.347 1.479C.983 15.669.083 15.415.083 14c0-3.995 3.429-9.5 5.917-9.5 1.978 0 2.5 1.484 2.5 2.269 0 .276-.224.5-.5.5-.275 0-.498-.222-.5-.497C7.496 6.556 7.404 5.5 6 5.5c-1.625 0-4.917 4.675-4.917 8.5 0 .674.26.703.399.719 1.111.122 3.459-1.754 3.635-2.525.252-1.106 1.249-2.899 1.291-2.975.126-.227.404-.317.639-.214.236.104.354.372.271.617l-2.47 7.362C4.779 17.193 4.584 17.325 4.375 17.325zM11.582 15.504c-.251 0-.477-.118-.619-.324-.188-.272-.21-.764-.133-1.354-.764.98-1.617 1.752-2.466 1.671-.37-.039-.661-.233-.821-.547-.588-1.156.955-3.986 1.441-4.826.139-.241.446-.32.684-.182.238.138.32.444.182.683-.965 1.667-1.651 3.55-1.412 3.876.727.082 2.393-2.184 3.446-4.346.116-.24.403-.345.647-.24.245.106.364.386.27.636-.629 1.665-1.065 3.351-1.032 3.932.623-.127 1.397-.807 1.643-1.06.191-.197.508-.203.707-.012.198.192.204.508.012.707-.137.141-1.368 1.38-2.545 1.386C11.584 15.504 11.583 15.504 11.582 15.504z"/><path d="M14.459,15.714c-0.06,0-0.119-0.002-0.18-0.007c-0.357-0.028-0.648-0.214-0.821-0.522c-0.914-1.626,1.979-7.614,2.888-9.411c0.124-0.248,0.426-0.347,0.672-0.221c0.246,0.125,0.345,0.425,0.221,0.672c-2.034,4.023-3.389,7.988-2.898,8.484c1.431,0.115,2.802-2.214,3.203-3.121c0.11-0.252,0.407-0.367,0.659-0.255c0.253,0.112,0.367,0.407,0.255,0.66C18.389,12.149,16.786,15.714,14.459,15.714z"/><path d="M15,19.125c-0.062,0-0.124-0.011-0.184-0.035c-0.254-0.1-0.38-0.385-0.285-0.64c0.087-0.231,0.362-0.95,0.783-1.875l2.558-6.118c0.106-0.255,0.4-0.375,0.653-0.269c0.255,0.106,0.375,0.399,0.269,0.654l-0.226,0.541c0.76-0.768,1.584-1.276,2.432-1.276c0.672,0,1.101,0.205,1.275,0.608c0.34,0.787-0.524,1.789-1.88,3.228c-0.204,0.216-0.446,0.474-0.645,0.698c1.321-0.29,2.822-1.802,3.363-2.458c0.176-0.214,0.491-0.245,0.703-0.069c0.214,0.175,0.244,0.491,0.068,0.704c-0.107,0.132-2.674,3.214-4.967,2.84c-0.24-0.04-0.428-0.191-0.5-0.407c-0.167-0.491,0.276-0.962,1.249-1.993c0.53-0.563,1.613-1.713,1.678-2.134c-0.036,0.008-0.142-0.017-0.346-0.017c-1.568,0-3.504,3.113-4.771,5.876l-0.768,1.835C15.381,19.009,15.195,19.125,15,19.125z"/></svg>